<?xml version="1.0" encoding="utf-8"?>
<!-- Generator: Adobe Illustrator 25.2.1, SVG Export Plug-In . SVG Version: 6.00 Build 0)  -->
<!DOCTYPE svg PUBLIC "-//W3C//DTD SVG 1.1//EN" "http://www.w3.org/Graphics/SVG/1.1/DTD/svg11.dtd" [
	<!ENTITY ns_extend "http://ns.adobe.com/Extensibility/1.0/">
	<!ENTITY ns_ai "http://ns.adobe.com/AdobeIllustrator/10.0/">
	<!ENTITY ns_graphs "http://ns.adobe.com/Graphs/1.0/">
	<!ENTITY ns_vars "http://ns.adobe.com/Variables/1.0/">
	<!ENTITY ns_imrep "http://ns.adobe.com/ImageReplacement/1.0/">
	<!ENTITY ns_sfw "http://ns.adobe.com/SaveForWeb/1.0/">
	<!ENTITY ns_custom "http://ns.adobe.com/GenericCustomNamespace/1.0/">
	<!ENTITY ns_adobe_xpath "http://ns.adobe.com/XPath/1.0/">
]>
<svg version="1.1" id="Capa_1" xmlns:x="&ns_extend;" xmlns:i="&ns_ai;" xmlns:graph="&ns_graphs;"
	 xmlns="http://www.w3.org/2000/svg" xmlns:xlink="http://www.w3.org/1999/xlink" x="0px" y="0px" width="19px" height="19px"
	 viewBox="0 0 19 19" style="enable-background:new 0 0 19 19;" xml:space="preserve">
<style type="text/css">
	.st0{fill:#737373;}
	.st1{fill:#707070;}
</style>
<metadata>
	<sfw  xmlns="&ns_sfw;">
		<slices></slices>
		<sliceSourceBounds  bottomLeftOrigin="true" height="15.8" width="14.2" x="33.3" y="-48.3"></sliceSourceBounds>
	</sfw>
</metadata>
<g>
	<g id="Grupo_6284" transform="translate(-2246.308 -5709.424)">
		<g id="Layer_3_1_" transform="translate(2246.308 5709.424)">
			<path id="Trazado_6094_1_" class="st0" d="M16.2,4.1c0.4-0.5,0.4-1.2,0-1.6c-0.4-0.4-1.2-0.5-1.6,0c0,0,0,0,0,0L8.3,8.9
				c-0.4,0.5-0.4,1.2,0,1.6l6.4,6.5c0.4,0.4,1.2,0.5,1.6,0c0,0,0,0,0,0c0.4-0.5,0.4-1.2,0-1.6L11,9.7L16.2,4.1z"/>
		</g>
		<g id="Layer_3_copia_1_" transform="translate(2246.308 5709.424)">
			<path id="Trazado_6095_1_" class="st0" d="M16.2,4.1c0.4-0.5,0.4-1.2,0-1.6c-0.4-0.4-1.2-0.5-1.6,0c0,0,0,0,0,0L8.3,8.9
				c-0.4,0.5-0.4,1.2,0,1.6l6.4,6.5c0.4,0.4,1.2,0.5,1.6,0c0,0,0,0,0,0c0.4-0.5,0.4-1.2,0-1.6L11,9.7L16.2,4.1z"/>
		</g>
	</g>
	<g id="Línea_156">
		<path class="st1" d="M3.7,1.7c0.7,0,1.2,0.6,1.2,1.2v13c0,0.7-0.6,1.2-1.2,1.2s-1.2-0.6-1.2-1.2v-13C2.4,2.2,3,1.7,3.7,1.7z"/>
	</g>
</g>
</svg>
