<?xml version="1.0" encoding="utf-8"?>
<!-- Generator: Adobe Illustrator 25.2.1, SVG Export Plug-In . SVG Version: 6.00 Build 0)  -->
<!DOCTYPE svg PUBLIC "-//W3C//DTD SVG 1.1//EN" "http://www.w3.org/Graphics/SVG/1.1/DTD/svg11.dtd" [
	<!ENTITY ns_extend "http://ns.adobe.com/Extensibility/1.0/">
	<!ENTITY ns_ai "http://ns.adobe.com/AdobeIllustrator/10.0/">
	<!ENTITY ns_graphs "http://ns.adobe.com/Graphs/1.0/">
	<!ENTITY ns_vars "http://ns.adobe.com/Variables/1.0/">
	<!ENTITY ns_imrep "http://ns.adobe.com/ImageReplacement/1.0/">
	<!ENTITY ns_sfw "http://ns.adobe.com/SaveForWeb/1.0/">
	<!ENTITY ns_custom "http://ns.adobe.com/GenericCustomNamespace/1.0/">
	<!ENTITY ns_adobe_xpath "http://ns.adobe.com/XPath/1.0/">
]>
<svg version="1.1" id="Capa_1" xmlns:x="&ns_extend;" xmlns:i="&ns_ai;" xmlns:graph="&ns_graphs;"
	 xmlns="http://www.w3.org/2000/svg" xmlns:xlink="http://www.w3.org/1999/xlink" x="0px" y="0px" width="19px" height="19px"
	 viewBox="0 0 19 19" style="enable-background:new 0 0 19 19;" xml:space="preserve">
<style type="text/css">
	.st0{opacity:0.5;}
	.st1{fill:#737373;}
</style>
<metadata>
	<sfw  xmlns="&ns_sfw;">
		<slices></slices>
		<sliceSourceBounds  bottomLeftOrigin="true" height="15.3" width="8.7" x="36" y="-47.9"></sliceSourceBounds>
	</sfw>
</metadata>
<g>
	<g id="Grupo_6284" transform="translate(-2246.308 -5709.424)" class="st0">
		<g id="Layer_3_1_" transform="translate(2246.308 5709.424)">
			<path id="Trazado_6094_1_" class="st1" d="M5.5,15c-0.4,0.5-0.4,1.2,0,1.6c0.4,0.4,1.2,0.5,1.6,0c0,0,0,0,0,0l6.4-6.5
				c0.4-0.5,0.4-1.2,0-1.6L7.1,2C6.7,1.6,6,1.6,5.5,2c0,0,0,0,0,0c-0.4,0.5-0.4,1.2,0,1.6l5.2,5.7L5.5,15z"/>
		</g>
		<g id="Layer_3_copia_1_" transform="translate(2246.308 5709.424)">
			<path id="Trazado_6095_1_" class="st1" d="M5.5,15c-0.4,0.5-0.4,1.2,0,1.6c0.4,0.4,1.2,0.5,1.6,0c0,0,0,0,0,0l6.4-6.5
				c0.4-0.5,0.4-1.2,0-1.6L7.1,2C6.7,1.6,6,1.6,5.5,2c0,0,0,0,0,0c-0.4,0.5-0.4,1.2,0,1.6l5.2,5.7L5.5,15z"/>
		</g>
	</g>
</g>
</svg>
